<svg xmlns="http://www.w3.org/2000/svg" width="750" height="545" fill="none" viewBox="0 0 750 545">
  <g clip-path="url(#clip0_44_161)">
    <path fill="#F2F2F2" d="M436.874 96.077c14.056 0 25.451-11.385 25.451-25.429 0-14.044-11.395-25.429-25.451-25.429-14.057 0-25.451 11.385-25.451 25.43 0 14.043 11.394 25.428 25.451 25.428zM634.307 473.472c37.831-28.789 55.9-77.166 44.588-123.315a132.972 132.972 0 00-.89-3.432c-7.5-27.394-26.053-53.429-53.094-62.182-22.705-7.349-47.488-1.698-71.175-4.62-46.498-5.737-82.548-43.327-107.913-82.684-25.366-39.357-44.86-83.412-78.565-115.926-55.557-53.595-146.185-65.134-215.068-30.248C83.307 85.951 39.43 163.35 41.3 240.487c1.872 77.137 47.705 150.885 114.266 190.013 24.451 14.374 52.732 24.557 80.877 20.994 24.422-3.092 46.611-16.202 70.917-20.095 38.215-6.119 76.187 11.144 109.24 31.261 33.053 20.116 64.98 43.961 102.541 53.287 36.471 9.056 81.654-16.973 115.166-42.475z"/>
    <path fill="#3F3D56" d="M579.954 52.685c-.829-.552-1.668-1.076-2.497-1.61A362.596 362.596 0 00500.905 14l-6.234 85.922h-39.52V1.457c-2.488-.514-4.995-1-7.502-1.457v99.922h-46.964a97.53 97.53 0 01-68.932-28.527 97.354 97.354 0 01-28.552-68.871 251.702 251.702 0 00-7.511 1.743v95.655h-38.253l-5.938-81.932a363.15 363.15 0 00-78.106 41.457c-.419.285-.838.58-1.248.866a322.351 322.351 0 00-6.253 4.505v327.796h112.735l-1.992-27.571-10.962-151.379h220.753l-10.962 151.379-1.992 27.571h111.486V55.999a281.065 281.065 0 00-5.004-3.314zM295.69 188.664h-31.828l-5.881-81.237h37.709v81.237zm151.959 0h-53.455v-1.609a5.877 5.877 0 00-1.729-4.166 5.904 5.904 0 00-4.172-1.72h-23.239a5.904 5.904 0 00-4.166 1.723 5.893 5.893 0 00-1.725 4.163v1.609h-55.962v-81.237h144.448v81.237zm7.502 0v-81.237h38.977l-5.882 81.237h-33.095zM0 413.605a275.356 275.356 0 0026.804 27.571l696.392.952A275.374 275.374 0 00750 414.557l-750-.952z"/>
    <path fill="#3F3D56" d="M472.246 325.321v81.621a3.929 3.929 0 003.926 3.923h121.061a3.931 3.931 0 003.927-3.923v-81.621a3.927 3.927 0 00-3.927-3.919H476.172a3.933 3.933 0 00-3.926 3.919z"/>
    <path fill="#B9F9F4" d="M475.086 326.336v79.6a2.1 2.1 0 002.098 2.096h119.042a2.101 2.101 0 002.098-2.096v-79.6a2.102 2.102 0 00-2.098-2.101H477.184a2.102 2.102 0 00-2.098 2.101z"/>
    <path fill="#2F2E41" d="M469.714 422.861a2.355 2.355 0 001.852.885h129.629a2.374 2.374 0 001.849-.882 2.385 2.385 0 00.482-1.99l-2.012-9.549a2.39 2.39 0 00-2.332-1.891H473.571a2.402 2.402 0 00-1.81.836 2.39 2.39 0 00-.522 1.055l-2.012 9.549a2.38 2.38 0 00.487 1.987z"/>
    <path fill="#3F3D56" d="M594.734 413.547h3.062a.466.466 0 00.466-.465v-1.463a.466.466 0 00-.466-.465h-3.062a.465.465 0 00-.465.465v1.463c0 .257.208.465.465.465zM586.75 413.547h3.061a.466.466 0 00.466-.465v-1.463a.466.466 0 00-.466-.465h-3.061a.466.466 0 00-.466.465v1.463c0 .257.209.465.466.465zM578.765 413.547h3.061a.466.466 0 00.466-.465v-1.463a.466.466 0 00-.466-.465h-3.061a.466.466 0 00-.466.465v1.463c0 .257.209.465.466.465zM570.78 413.547h3.061a.466.466 0 00.466-.465v-1.463a.466.466 0 00-.466-.465h-3.061a.466.466 0 00-.466.465v1.463c0 .257.209.465.466.465zM562.795 413.547h3.061a.466.466 0 00.466-.465v-1.463a.466.466 0 00-.466-.465h-3.061a.466.466 0 00-.466.465v1.463c0 .257.209.465.466.465zM554.81 413.547h3.061a.466.466 0 00.466-.465v-1.463a.466.466 0 00-.466-.465h-3.061a.466.466 0 00-.466.465v1.463c0 .257.209.465.466.465zM546.825 413.547h3.061a.466.466 0 00.466-.465v-1.463a.466.466 0 00-.466-.465h-3.061a.466.466 0 00-.466.465v1.463c0 .257.209.465.466.465zM538.84 413.547h3.061a.466.466 0 00.466-.465v-1.463a.466.466 0 00-.466-.465h-3.061a.466.466 0 00-.466.465v1.463c0 .257.209.465.466.465zM530.855 413.547h3.062a.465.465 0 00.465-.465v-1.463a.465.465 0 00-.465-.465h-3.062a.466.466 0 00-.466.465v1.463c0 .257.209.465.466.465zM522.87 413.547h3.062a.465.465 0 00.465-.465v-1.463a.465.465 0 00-.465-.465h-3.062a.466.466 0 00-.466.465v1.463c0 .257.209.465.466.465zM514.885 413.547h3.062a.465.465 0 00.465-.465v-1.463a.465.465 0 00-.465-.465h-3.062a.466.466 0 00-.466.465v1.463c0 .257.209.465.466.465zM506.9 413.547h3.062a.465.465 0 00.465-.465v-1.463a.465.465 0 00-.465-.465H506.9a.466.466 0 00-.466.465v1.463c0 .257.209.465.466.465zM498.915 413.547h3.062a.465.465 0 00.465-.465v-1.463a.465.465 0 00-.465-.465h-3.062a.466.466 0 00-.466.465v1.463c0 .257.209.465.466.465zM490.93 413.547h3.062a.465.465 0 00.465-.465v-1.463a.465.465 0 00-.465-.465h-3.062a.466.466 0 00-.466.465v1.463c0 .257.209.465.466.465zM482.945 413.547h3.062a.465.465 0 00.465-.465v-1.463a.465.465 0 00-.465-.465h-3.062a.465.465 0 00-.465.465v1.463c0 .257.208.465.465.465zM474.96 413.547h3.062a.465.465 0 00.465-.465v-1.463a.465.465 0 00-.465-.465h-3.062a.465.465 0 00-.465.465v1.463c0 .257.208.465.465.465zM594.829 417.536h3.062a.465.465 0 00.465-.465v-1.463a.465.465 0 00-.465-.465h-3.062a.466.466 0 00-.466.465v1.463c0 .257.209.465.466.465zM586.844 417.536h3.062a.465.465 0 00.465-.465v-1.463a.465.465 0 00-.465-.465h-3.062a.465.465 0 00-.465.465v1.463c0 .257.208.465.465.465zM578.859 417.536h3.062a.465.465 0 00.465-.465v-1.463a.465.465 0 00-.465-.465h-3.062a.466.466 0 00-.466.465v1.463c0 .257.209.465.466.465zM570.874 417.536h3.062a.465.465 0 00.465-.465v-1.463a.465.465 0 00-.465-.465h-3.062a.465.465 0 00-.465.465v1.463c0 .257.208.465.465.465zM562.889 417.536h3.062a.465.465 0 00.465-.465v-1.463a.465.465 0 00-.465-.465h-3.062a.465.465 0 00-.465.465v1.463c0 .257.208.465.465.465zM554.904 417.536h3.062a.465.465 0 00.465-.465v-1.463a.465.465 0 00-.465-.465h-3.062a.465.465 0 00-.465.465v1.463c0 .257.208.465.465.465zM546.919 417.536h3.062a.465.465 0 00.465-.465v-1.463a.465.465 0 00-.465-.465h-3.062a.465.465 0 00-.465.465v1.463c0 .257.208.465.465.465zM538.934 417.536h3.062a.465.465 0 00.465-.465v-1.463a.465.465 0 00-.465-.465h-3.062a.465.465 0 00-.465.465v1.463c0 .257.208.465.465.465zM530.949 417.536h3.062a.465.465 0 00.465-.465v-1.463a.465.465 0 00-.465-.465h-3.062a.465.465 0 00-.465.465v1.463c0 .257.208.465.465.465zM522.964 417.536h3.062a.465.465 0 00.465-.465v-1.463a.465.465 0 00-.465-.465h-3.062a.465.465 0 00-.465.465v1.463c0 .257.208.465.465.465zM514.979 417.536h3.062a.465.465 0 00.465-.465v-1.463a.465.465 0 00-.465-.465h-3.062a.465.465 0 00-.465.465v1.463c0 .257.208.465.465.465zM506.994 417.536h3.062a.465.465 0 00.465-.465v-1.463a.465.465 0 00-.465-.465h-3.062a.465.465 0 00-.465.465v1.463c0 .257.208.465.465.465zM499.009 417.536h3.062a.465.465 0 00.465-.465v-1.463a.465.465 0 00-.465-.465h-3.062a.465.465 0 00-.465.465v1.463c0 .257.208.465.465.465zM491.024 417.536h3.062a.465.465 0 00.465-.465v-1.463a.465.465 0 00-.465-.465h-3.062a.465.465 0 00-.465.465v1.463c0 .257.208.465.465.465zM483.039 417.536h3.062a.465.465 0 00.465-.465v-1.463a.465.465 0 00-.465-.465h-3.062a.465.465 0 00-.465.465v1.463c0 .257.208.465.465.465zM475.054 417.536h3.062a.465.465 0 00.465-.465v-1.463a.465.465 0 00-.465-.465h-3.062a.465.465 0 00-.465.465v1.463c0 .257.208.465.465.465zM528.554 422.323h31.009a.465.465 0 00.465-.465v-1.464a.465.465 0 00-.465-.465h-31.009a.466.466 0 00-.466.465v1.464c0 .257.209.465.466.465z"/>
    <path fill="#fff" d="M495.7 341.65h-2.71a1.487 1.487 0 100 2.973h2.71a1.487 1.487 0 100-2.973zM526.701 341.65h-2.71a1.487 1.487 0 100 2.973h2.71a1.487 1.487 0 100-2.973zM535.485 341.65h-2.711a1.487 1.487 0 100 2.973h2.711a1.487 1.487 0 100-2.973zM518.269 341.402h-16.847a1.487 1.487 0 100 2.973h16.847a1.487 1.487 0 100-2.973zM559.604 341.402h-16.847a1.487 1.487 0 100 2.973h16.847a1.487 1.487 0 100-2.973zM503.967 348.361h-2.71a1.487 1.487 0 100 2.973h2.71a1.487 1.487 0 100-2.973zM534.968 348.361h-2.71a1.487 1.487 0 100 2.973h2.71a1.487 1.487 0 100-2.973zM543.752 348.361h-2.711a1.487 1.487 0 100 2.973h2.711a1.487 1.487 0 100-2.973zM526.536 348.113h-16.847a1.487 1.487 0 100 2.973h16.847a1.487 1.487 0 100-2.973zM567.871 348.113h-16.847a1.487 1.487 0 100 2.973h16.847a1.487 1.487 0 100-2.973zM512.234 355.072h-2.71a1.487 1.487 0 100 2.973h2.71a1.487 1.487 0 100-2.973zM543.235 355.072h-2.71a1.487 1.487 0 100 2.973h2.71a1.487 1.487 0 100-2.973zM552.019 355.072h-2.711a1.487 1.487 0 100 2.973h2.711a1.487 1.487 0 100-2.973zM534.803 354.824h-16.847a1.487 1.487 0 100 2.973h16.847a1.487 1.487 0 100-2.973zM576.138 354.824h-16.847a1.487 1.487 0 100 2.973h16.847a1.487 1.487 0 100-2.973zM520.501 361.783h-2.71a1.488 1.488 0 100 2.973h2.71a1.487 1.487 0 100-2.973zM551.502 361.783h-2.71a1.487 1.487 0 100 2.973h2.71a1.487 1.487 0 100-2.973zM560.286 361.783h-2.711a1.487 1.487 0 100 2.973h2.711a1.487 1.487 0 100-2.973zM543.07 361.535h-16.847a1.487 1.487 0 100 2.973h16.847a1.487 1.487 0 100-2.973zM526.701 388.469h-2.71a1.487 1.487 0 100 2.973h2.71a1.488 1.488 0 100-2.973zM535.485 388.469h-2.711a1.487 1.487 0 100 2.973h2.711a1.488 1.488 0 100-2.973zM559.604 388.716h-16.847a1.488 1.488 0 100 2.974h16.847a1.488 1.488 0 100-2.974zM495.7 388.469h-2.71a1.487 1.487 0 100 2.973h2.71a1.488 1.488 0 100-2.973zM518.269 388.716h-16.847a1.488 1.488 0 100 2.974h16.847a1.488 1.488 0 100-2.974zM503.967 381.758h-2.71a1.487 1.487 0 100 2.973h2.71a1.488 1.488 0 100-2.973zM534.968 381.758h-2.71a1.487 1.487 0 100 2.973h2.71a1.488 1.488 0 100-2.973zM543.752 381.758h-2.711a1.487 1.487 0 100 2.973h2.711a1.488 1.488 0 100-2.973zM526.536 382.005h-16.847a1.488 1.488 0 100 2.974h16.847a1.488 1.488 0 100-2.974zM512.234 375.047h-2.71a1.487 1.487 0 100 2.973h2.71a1.488 1.488 0 100-2.973zM543.235 375.047h-2.71a1.487 1.487 0 100 2.973h2.71a1.488 1.488 0 100-2.973zM552.019 375.047h-2.711a1.487 1.487 0 100 2.973h2.711a1.488 1.488 0 100-2.973zM534.803 375.294h-16.847a1.488 1.488 0 100 2.974h16.847a1.488 1.488 0 100-2.974zM520.501 368.336h-2.71a1.488 1.488 0 100 2.973h2.71a1.488 1.488 0 100-2.973zM551.502 368.336h-2.71a1.487 1.487 0 100 2.973h2.71a1.488 1.488 0 100-2.973zM560.286 368.336h-2.711a1.487 1.487 0 100 2.973h2.711a1.488 1.488 0 100-2.973zM543.07 368.583h-16.847a1.488 1.488 0 100 2.974h16.847a1.488 1.488 0 100-2.974z"/>
    <path fill="#FFB6B6" d="M481.289 467.119l-12.725-20.097 39.942-31.811 16.485-18.249a18.282 18.282 0 0125.734-1.375 18.235 18.235 0 014.276 21.53 18.254 18.254 0 01-10.137 9.196l-26.069 9.596-37.506 31.21z"/>
    <path fill="#2F2E41" d="M182.72 321.406v97.675h68.487v-97.675a3.276 3.276 0 00-.64-1.953 3.292 3.292 0 00-1.676-1.19 3.031 3.031 0 00-.982-.152h-61.882a3.3 3.3 0 00-3.307 3.295zm26.728 33.561a7.298 7.298 0 012.165-5.121 7.315 7.315 0 0110.291 0 7.299 7.299 0 012.166 5.121v11.334a7.304 7.304 0 01-7.311 7.267 7.314 7.314 0 01-5.157-2.126 7.299 7.299 0 01-2.154-5.141v-11.334z"/>
    <path fill="#3F3D56" d="M182.51 415.957v9.419a1.854 1.854 0 001.84 1.848h65.227a1.845 1.845 0 001.84-1.848v-9.419H182.51zM74.979 174.246v178.34a8.574 8.574 0 002.515 6.059 8.59 8.59 0 006.064 2.513h264.514a8.59 8.59 0 006.064-2.513 8.573 8.573 0 002.515-6.059v-178.34a8.578 8.578 0 00-2.519-6.051 8.594 8.594 0 00-6.06-2.511H83.558a8.594 8.594 0 00-6.06 2.511 8.576 8.576 0 00-2.519 6.051z"/>
    <path fill="#fff" d="M81.184 176.465v173.921a4.593 4.593 0 004.585 4.581H345.87a4.595 4.595 0 003.24-1.344 4.586 4.586 0 001.345-3.237V176.465a4.594 4.594 0 00-4.585-4.59H85.77a4.593 4.593 0 00-4.586 4.59z"/>
    <path fill="#2F2E41" d="M129.455 426.585a2.8 2.8 0 002.211 1.058h154.743a2.86 2.86 0 002.208-1.053 2.835 2.835 0 00.576-2.376l-2.403-11.4a2.853 2.853 0 00-1.772-2.066 2.754 2.754 0 00-1.011-.191H134.059c-.346 0-.689.064-1.011.191a2.846 2.846 0 00-1.773 2.066l-2.402 11.4a2.836 2.836 0 00.582 2.371z"/>
    <path fill="#3F3D56" d="M337.429 195.833H94.054a.97.97 0 01-.947-.967.966.966 0 01.947-.967h243.375a.97.97 0 01.947.967.964.964 0 01-.947.967zM110.621 188.962c3.132 0 5.672-2.594 5.672-5.793 0-3.2-2.54-5.794-5.672-5.794-3.133 0-5.672 2.594-5.672 5.794 0 3.199 2.539 5.793 5.672 5.793zM130.215 188.962c3.132 0 5.672-2.594 5.672-5.793 0-3.2-2.54-5.794-5.672-5.794-3.133 0-5.672 2.594-5.672 5.794 0 3.199 2.539 5.793 5.672 5.793zM149.809 188.962c3.132 0 5.672-2.594 5.672-5.793 0-3.2-2.54-5.794-5.672-5.794-3.133 0-5.672 2.594-5.672 5.794 0 3.199 2.539 5.793 5.672 5.793zM325.63 178.808h-13.917a1.052 1.052 0 000 2.105h13.917a1.053 1.053 0 000-2.105zM325.63 182.76h-13.917a1.055 1.055 0 00-.73 1.789c.193.196.455.31.73.316h13.917a1.054 1.054 0 00.737-1.792 1.058 1.058 0 00-.737-.313zM325.63 186.713h-13.917a1.056 1.056 0 00-1.029 1.052 1.055 1.055 0 001.029 1.052h13.917a1.052 1.052 0 000-2.104z"/>
    <path fill="#2F2E41" d="M661.138 420.091a6.114 6.114 0 005.894 4.125l25.252-.65a6.034 6.034 0 005.701-4.435l3.574-38.178a9.35 9.35 0 004.039.83 9.24 9.24 0 003.506-.789 9.195 9.195 0 004.857-5.103 9.177 9.177 0 00.612-3.538 9.178 9.178 0 00-.789-3.502 9.217 9.217 0 00-5.107-4.853 9.23 9.23 0 00-3.541-.612 7.803 7.803 0 00-1.655.172 6.236 6.236 0 00-4.646-2.003l-38.843 1.002a5.625 5.625 0 00-.959.119 6.078 6.078 0 00-4.114 2.88 6.067 6.067 0 00-.531 4.991l6.75 49.544zm41.153-41.73l2.543-9.098a6.2 6.2 0 00.02-3.214c.123 0 .232-.058.355-.059a6.592 6.592 0 014.69 1.825 6.578 6.578 0 01.218 9.292 6.587 6.587 0 01-4.599 2.042 6.199 6.199 0 01-3.227-.788z"/>
    <path fill="#3F3D56" d="M659.033 362.676c.828 4.728 10.132 8.051 21.32 7.474 10.287-.474 18.699-4.083 20.24-8.361a5.772 5.772 0 00-1.758-.234l-38.843 1.002a5.625 5.625 0 00-.959.119z"/>
    <path fill="#B9F9F4" d="M682.403 399.112a.5.5 0 00.144-.063l5.484-3.587a.466.466 0 00.158-.172.47.47 0 000-.452.466.466 0 00-.158-.172l-5.7-3.73a.472.472 0 00-.661.136.47.47 0 00.005.53.488.488 0 00.134.13l5.091 3.331-4.875 3.189a.476.476 0 00.378.86zM673.741 399.511a.48.48 0 00.311-.672.477.477 0 00-.19-.203l-5.055-2.895 4.885-3.626a.458.458 0 00.125-.138.461.461 0 00.053-.36.472.472 0 00-.392-.355.486.486 0 00-.354.089l-5.47 4.06a.488.488 0 00-.148.18.473.473 0 00.195.615l5.686 3.256a.477.477 0 00.354.049zM681.858 402.255a.47.47 0 00.13-.056.468.468 0 00.216-.294.48.48 0 00-.056-.36l-7.774-12.77a.48.48 0 00-.655-.158.479.479 0 00-.159.654l7.773 12.77a.48.48 0 00.525.214zM244.821 248.403h-42.123a3.11 3.11 0 00-3.112 3.109v4.112a3.11 3.11 0 003.112 3.109h42.123a3.11 3.11 0 003.111-3.109v-4.112a3.11 3.11 0 00-3.111-3.109z"/>
    <path fill="#E6E6E6" d="M269.374 269.062h-91.23a3.11 3.11 0 00-3.111 3.108v4.112a3.11 3.11 0 003.111 3.109h91.23a3.11 3.11 0 003.111-3.109v-4.112a3.11 3.11 0 00-3.111-3.108zM269.374 289.72h-91.23a3.11 3.11 0 00-3.111 3.108v4.112a3.11 3.11 0 003.111 3.109h91.23a3.11 3.11 0 003.111-3.109v-4.112a3.11 3.11 0 00-3.111-3.108z"/>
    <path fill="#3F3D56" d="M277.107 358.896l.207.652.011.022 6.219 18.893 7.155 21.772 13.462 40.915.131 6.355v.022l1 51.127-2.773 6.932 3.121 11.364s-1.435-17.178-9.134-7.313c-4.36 5.606-9.46 11.342-13.647 16.72a255.76 255.76 0 0022.694 7.953l.881.26a254.574 254.574 0 0064.199 10.311c1.131.032 2.24.054 3.317.076.38.01.75.021 1.12.021 1.217.011 2.424.022 3.642.022 2.458 0 4.904-.036 7.34-.109a254.56 254.56 0 0053.467-7.224c-.12-7.225-.446-15.667-.914-24.684-.217-4.422-5.099-9.213-5.393-13.841-.207-3.477 4.175-6.747 3.947-10.278-1.479-21.739-3.327-13.394-4.697-28.789-.142-1.51-.272-2.955-.392-4.335-.881-9.886-1.49-16.068-1.49-16.068l5.851-36.841 9.188-57.841-.707-1.163-.794-.391-48.464-23.967-2.632-6.735a10.46 10.46 0 00-9.667-6.617l-31.925-.13a10.423 10.423 0 00-8.493 4.313l-8.644 11.962-57.186 36.634z"/>
    <path fill="#3F3D56" d="M311.523 432.045l-7.231 15.46-4.937 10.56-8.492 44.425-4.252 4.508-3.643-15.961-38.126 8.458c-1.25-6.942-.335.235-1.107-7.381.218-.217.446-.435.674-.652.609-.565 1.121-1.097 1.11-1.608-.435-26.27.87-70.976 11.765-98.061a57.247 57.247 0 016.698-12.483c.218-.293.424-.587.631-.88 5.024-7.029 8.199-13.95 12.701-18.871v-.011a.546.546 0 00.076-.076.137.137 0 00.043-.033l30.926-16.383 1.326 37.243.946 26.769.892 24.977zM423.033 436.436l9.033 19.31 3.152 6.724 8.49 44.42 4.238 4.498 3.651-15.957 1.716-.352 30.94-6.402 9.017 28.615a17.11 17.11 0 002.267-11.27 17.123 17.123 0 00-5.375-10.164c-.616-.556-1.129-1.098-1.115-1.611.514-30.898-1.378-87.317-18.461-110.538-5.425-7.369-8.68-14.709-13.417-19.836-.014-.015-.014-.029-.029-.029l-11.525-18.856-.704-1.157-.792-.396-21.086 93.001z"/>
    <path fill="#FFB6B6" d="M368.315 296.909c23.457 0 42.473-18.999 42.473-42.436 0-23.436-19.016-42.436-42.473-42.436-23.458 0-42.473 19-42.473 42.436 0 23.437 19.015 42.436 42.473 42.436z"/>
    <path fill="#2F2E41" d="M425.722 224.832a3.597 3.597 0 00-1.166-.828 3.6 3.6 0 00-1.398-.305l.639-1.772a3.358 3.358 0 00-2.023-4.34 3.38 3.38 0 00-1.752-.136l-2.326.448.219-1.553a3.361 3.361 0 00-2.791-3.805 3.38 3.38 0 00-1.717.167 3.588 3.588 0 01-3.089-.219 3.657 3.657 0 01-1.189-1.041 3.651 3.651 0 01-.641-1.444l-.81-3.905-.086-.21c-3.946-6.571-11.534-11.352-20.818-13.104-8.264-1.572-16.738-.772-24.907-.019-3.241.304-6.901.647-9.951 2.514-2.593 1.6-4.785 4.8-4.337 8.028-8.055-2.466-16.691 2.458-20.971 8.667-5.071 7.39-5.9 16.647-6.034 23.885-.362 17.124 3.174 31.133 10.485 41.647.534.762.668 2.353 1.726 2.886l-.219-.352c1.182.59 2.383 1.543 1.935 2.562-1.287 2.933 7.263 9.419 13.287 11.561 10.991 3.915 25.603 3.581 35.879 2.172l.362-2.429c3.708-.505 6.32-1.466 7.054-2.971a84.198 84.198 0 003.365-3.01l.009-.009c.019-.019.057-.048.076-.067 4.642-4.447 5.72-6.981 6.206-10.838.467-3.781-.362-7.619-1.211-11.076 17.863 2.762-7.035-19.009 9.608-23.219.191-.058.385-.106.582-.142.486-.115.972-.229 1.439-.362a25.238 25.238 0 006.406-2.734c4.651-2.828 6.186-6.58 8.588-10.809a3.259 3.259 0 00-.429-3.838zM518.536 439.458c-.01 1.666-.029 4-.105 6.885l-.029 1.229a827.915 827.915 0 01-.448 14.695c-.009.343-.019.676-.038 1.019-.267 6.895-.686 14.924-1.411 27.638-1.344 23.485-3.689 3.228-6.043 11.466-.114.41-.238.895-.353 1.467a26.53 26.53 0 01-1.792 6.028c-1.248.743-2.535 1.457-3.803 2.172a269.52 269.52 0 01-10.981 5.781 269.934 269.934 0 01-6.262 3.009c-.334.152-.658.305-.982.448a258.43 258.43 0 01-33.124 12.628 227.928 227.928 0 01-6.644 1.914 216.822 216.822 0 01-7.006 1.829 254.603 254.603 0 01-53.465 7.228c-2.431.077-4.881.105-7.34.105-1.22 0-2.421-.009-3.641-.019-.372 0-.744-.009-1.115-.019-1.077-.029-2.193-.048-3.317-.076a254.384 254.384 0 01-64.199-10.314l-.886-.257c-1.373-.419-2.736-.829-4.099-1.267a255.267 255.267 0 01-18.597-6.686 258.873 258.873 0 01-13.822-6.038.314.314 0 01-.114-.057c-.953-.438-1.916-.895-2.869-1.362a17.545 17.545 0 00-.391-.2 259.044 259.044 0 01-10.552-5.447c-2.926-6.715-7.044-8-9.599-13.905a24.676 24.676 0 01-1.601-5.467c0-.019-.009-.038-.009-.066.266 3.543-1.135-6.286-.01-.038a47.276 47.276 0 00-.152-1.667c-3.27-31.895-3.06-68.37-4.481-98.427a662.85 662.85 0 00-.295-5.581c-.029-.591-.067-1.171-.105-1.743a6.41 6.41 0 01.229-.524.884.884 0 01.067-.143c.028-.059.06-.116.095-.171.019-.029.048-.067.067-.095a.763.763 0 01.047-.095c.086-.134.181-.277.286-.41.048-.057.086-.105.134-.152a.77.77 0 01.114-.134.616.616 0 01.105-.123c.038-.039.076-.086.124-.134a.275.275 0 01.076-.076c.075-.086.158-.166.248-.238.34-.313.703-.599 1.087-.857.133-.086.276-.172.409-.267a18.225 18.225 0 013.022-1.447c.362-.134.725-.258 1.115-.391.143-.038.277-.086.42-.133.209-.067.419-.134.638-.181 1.087-.324 2.26-.6 3.527-.857.153-.029.315-.057.477-.096.229-.047.467-.085.705-.123.324-.058.658-.115.992-.172 2.831-.447 6.043-.781 9.589-1l1.001-.057 1.182-.057c.333-.019.676-.029 1.02-.038a32.93 32.93 0 011.029-.038c.963-.029 1.954-.057 2.965-.076 2.878-.058 5.909-.039 9.093.028 1.478.038 2.984.076 4.528.143.105 0 .2.009.295.009 1.344.048 2.698.105 4.09.181.972.048 1.954.096 2.935.153.925.057 1.859.114 2.803.181.734.038 1.468.095 2.211.143.629.047 1.258.095 1.888.133l.857.057c.467.038.935.067 1.411.114 1.049.086 2.097.172 3.165.258 1.058.095 2.135.19 3.212.285 1.077.095 2.164.2 3.251.305l.324.029c.991.104 1.982.2 2.983.304.229.019.467.038.696.067.954.096 1.927.208 2.89.31l.886.095c.754.082 1.498.153 2.258.243 1.001.114 2.021.219 3.012.352.772.086 1.544.171 2.316.267 1.211.143 2.44.295 3.67.457.467.057.934.114 1.401.181 3.508.438 7.054.924 10.657 1.428a831.62 831.62 0 0116.595 2.515c5.596.904 11.223 1.86 16.882 2.866 1.429.257 2.859.514 4.298.781l1.945.371c1.106.2 2.211.41 3.317.62 1.106.209 2.212.419 3.317.638l3.956.771a922.406 922.406 0 0125.689 5.457c1.382.314 2.764.638 4.137.952 2.745.639 5.465 1.286 8.159 1.943.744.172 1.478.353 2.212.534 1.83.457 3.66.914 5.462 1.381l.314.085c1.325.324 2.621.657 3.918 1 3.06.8 6.068 1.61 9.027 2.429 1.963.543 3.905 1.092 5.824 1.647 2.869.829 5.681 1.667 8.416 2.515.677.209 1.354.419 2.021.619 2.002.619 3.975 1.247 5.891 1.876 1.525.495 3.012 1 4.48 1.505 1.468.504 2.907 1.009 4.318 1.514.906.324 1.802.667 2.698.99 1.287.477 2.554.953 3.793 1.429.382.143.754.295 1.125.438.239.105.467.19.696.286.448.181.906.352 1.344.533.448.171.887.352 1.325.543.429.171.867.352 1.287.533.429.172.848.353 1.268.543.352.143.695.295 1.029.448.677.295 1.354.59 2.011.895.324.152.649.295.973.447l.743.343c.105.057.21.105.315.153.238.114.486.238.724.352.553.257 1.096.533 1.63.791.715.361 1.411.723 2.078 1.076.677.362 1.335.724 1.964 1.076.105.057.2.114.305.171.143.076.286.162.429.238.486.277.953.562 1.42.838a66.201 66.201 0 012.593 1.667c.181.124.352.248.533.362.601.429 1.173.848 1.707 1.276 0 .01 0 .01.009.01.181.133.353.276.524.409.143.134.296.248.439.381.496.429.953.838 1.373 1.257.14.13.274.266.4.41.055.046.106.097.152.152.191.191.363.381.525.572a.538.538 0 01.066.085c.229.267.439.534.639.8.095.134.2.267.286.4.114.162.229.334.324.496.086.133.162.276.238.409.203.343.375.703.515 1.076.107.253.193.514.258.781.072.253.126.511.162.772z"/>
    <path fill="#000" d="M518.536 439.458c-.01 1.666-.029 4-.105 6.885-.01.4-.029.81-.038 1.229a1274.59 1274.59 0 01-.439 14.695c-.009.343-.019.676-.038 1.019-.267 6.895-.686 14.924-1.411 27.638-1.344 23.485-3.689 3.228-6.043 11.466-6.539-4.019-13.707-8.228-21.371-12.552-1.382-.781-2.777-1.565-4.184-2.352-15.328-8.543-32.447-17.495-50.32-26.362-.705-.352-1.42-.705-2.126-1.048-40.94-20.218-85.626-39.885-121.829-53.008a560.093 560.093 0 00-19.931-6.829c-13.212-4.219-24.631-7.171-33.42-8.447-9.15-1.334-15.47-.858-18.025 1.895a707.875 707.875 0 00-.295-5.581c-.038-.59-.076-1.171-.115-1.743.059-.157.136-.306.21-.457.01-.022.018-.045.029-.067a.884.884 0 01.067-.143 1.43 1.43 0 01.095-.171c.031-.067.069-.131.114-.19.086-.134.181-.277.286-.41.077-.1.16-.195.248-.286a.651.651 0 01.105-.124c.038-.038.076-.085.124-.133a.275.275 0 01.076-.076 1.86 1.86 0 01.248-.238c.34-.313.703-.599 1.087-.857.133-.086.276-.172.409-.267a18.225 18.225 0 013.022-1.447 44.14 44.14 0 011.115-.391c.143-.038.277-.086.42-.133.209-.067.419-.134.638-.181 1.087-.324 2.259-.6 3.527-.857.381-.077.782-.153 1.182-.219.324-.058.658-.115.992-.172 2.831-.447 6.043-.781 9.589-1l1.001-.057 1.182-.057c.333-.019.676-.029 1.02-.038a32.93 32.93 0 011.029-.038 261.57 261.57 0 012.964-.076c2.879-.048 5.91-.029 9.094.038 1.477.028 2.984.076 4.528.142.095 0 .2.01.295.01 1.344.038 2.707.105 4.089.171.973.048 1.955.096 2.936.153.925.057 1.859.114 2.803.181.734.038 1.468.095 2.211.143.629.047 1.258.095 1.888.133l2.268.171c1.049.086 2.097.172 3.165.257 1.058.096 2.135.191 3.212.286 1.077.095 2.164.2 3.25.305.115.009.22.019.325.029.991.104 1.982.2 2.983.304a648.89 648.89 0 0117.129 1.972c3.508.447 7.06.927 10.657 1.438 5.462.771 11.01 1.609 16.595 2.504a1095.71 1095.71 0 0116.881 2.867 748.073 748.073 0 019.561 1.772c1.106.209 2.212.419 3.317.638l3.956.771a922.406 922.406 0 0125.689 5.457c1.382.314 2.764.638 4.137.952a799.585 799.585 0 0110.371 2.486c1.839.457 3.66.914 5.462 1.372v.009c.104.019.209.048.314.076a747.235 747.235 0 0112.945 3.429c1.963.552 3.908 1.095 5.824 1.647 2.869.839 5.681 1.677 8.417 2.515.676.209 1.353.419 2.02.619 2.002.628 3.966 1.254 5.891 1.876 1.525.495 3.012 1 4.48 1.505 1.468.504 2.907 1.009 4.318 1.514.915.324 1.811.657 2.698.981 1.296.476 2.554.952 3.793 1.438.382.143.754.295 1.125.438.696.267 1.373.543 2.04.819.448.171.887.352 1.325.543.429.171.867.352 1.287.533.429.172.848.353 1.268.543.352.143.696.295 1.029.448.677.295 1.354.59 2.011.895.324.152.649.295.973.448l.743.342c.105.057.21.105.315.153.81.381 1.592.762 2.354 1.143.715.361 1.411.723 2.078 1.076.791.419 1.544.828 2.269 1.247.143.076.286.162.429.238.486.277.953.562 1.42.838a66.201 66.201 0 012.593 1.667 47.41 47.41 0 012.24 1.638c0 .01 0 .01.009.01.334.266.658.533.963.79.496.429.953.838 1.373 1.257.14.13.274.266.4.41.055.046.107.097.152.152.201.219.401.438.592.657.228.267.438.534.638.8.095.134.2.267.286.4.114.162.229.334.324.496.086.133.162.276.238.409.203.343.375.703.515 1.076.105.254.191.515.258.781.072.253.126.511.162.772z" opacity=".2"/>
  </g>
  <defs>
    <clipPath id="clip0_44_161">
      <path fill="#fff" d="M0 0h750v545H0z"/>
    </clipPath>
  </defs>
</svg>
